<svg id="Layer_1" enable-background="new 0 0 512.002 512.002" height="512" viewBox="0 0 512.002 512.002" width="512" xmlns="http://www.w3.org/2000/svg"><g><g fill="#020288"><path d="m279.269 55.168c19.922-20.168 5.389-55.241-23.268-55.168-28.655-.074-43.19 35.005-23.268 55.168-18.729 8.78-31.732 27.816-31.732 49.832 0 5.523 4.477 10 10 10h35v46.001c.492 13.254 19.513 13.244 20 0v-46.001h35c5.523 0 10-4.477 10-10 0-22.016-13.003-41.052-31.732-49.832zm-23.268-35.168c6.893 0 12.5 5.607 12.5 12.5-.628 16.56-24.374 16.556-25 0 0-6.893 5.608-12.5 12.5-12.5zm-33.545 75c10.115-33.135 56.988-33.113 67.09 0z"/><path d="m279.269 452.17c16.883-16.822 9.279-46.638-13.269-53.594v-47.575c-.492-13.254-19.513-13.244-20 0v47.575c-22.557 6.962-30.144 36.779-13.268 53.594-18.729 8.78-31.732 27.816-31.732 49.832 0 5.523 4.477 10 10 10h90c5.523 0 10-4.477 10-10 .001-22.016-13.002-41.052-31.731-49.832zm-23.268-35.168c6.893 0 12.5 5.607 12.5 12.5-.628 16.56-24.374 16.556-25 0 0-6.893 5.608-12.5 12.5-12.5zm-33.545 75c10.115-33.135 56.988-33.113 67.09 0z"/><path d="m480.27 407.169c16.883-16.822 9.279-46.638-13.269-53.594v-73.575c0-5.523-4.477-10-10-10h-111c-13.254.492-13.244 19.513 0 20h101.001v63.575c-22.557 6.962-30.144 36.779-13.268 53.594-18.729 8.78-31.732 27.816-31.732 49.832 0 5.523 4.477 10 10 10h90c5.523 0 10-4.477 10-10 0-22.015-13.003-41.051-31.732-49.832zm-23.268-35.168c6.893 0 12.5 5.607 12.5 12.5-.628 16.56-24.374 16.556-25 0 0-6.892 5.608-12.5 12.5-12.5zm-33.545 75c10.115-33.135 56.988-33.113 67.09 0z"/><path d="m166.001 221.001h-101.001v-61h35c5.523 0 10-4.477 10-10 0-22.016-13.003-41.052-31.732-49.832 19.922-20.169 5.388-55.242-23.268-55.168-28.655-.074-43.19 35.005-23.268 55.168-18.729 8.78-31.732 27.816-31.732 49.831 0 5.523 4.477 10 10 10h35v71c0 5.523 4.477 10 10 10h111.001c13.254-.491 13.244-19.512 0-19.999zm-111.001-156.001c6.893 0 12.5 5.607 12.5 12.5-.628 16.56-24.374 16.556-25 0 0-6.892 5.608-12.5 12.5-12.5zm0 50c15.825 0 29.231 10.558 33.545 25h-67.09c4.314-14.441 17.72-25 33.545-25z"/><path d="m166.001 270h-111.001c-5.523 0-10 4.477-10 10v73.575c-22.557 6.962-30.145 36.779-13.268 53.594-18.729 8.781-31.732 27.817-31.732 49.832 0 5.523 4.477 10 10 10h90c5.523 0 10-4.477 10-10 0-22.016-13.003-41.052-31.732-49.832 16.883-16.822 9.279-46.638-13.268-53.594v-63.575h101.001c13.254-.491 13.244-19.513 0-20zm-77.456 177.001h-67.09c10.115-33.134 56.988-33.113 67.09 0zm-33.545-50c-6.893 0-12.5-5.607-12.5-12.5.628-16.56 24.374-16.556 25 0 0 6.893-5.607 12.5-12.5 12.5z"/><path d="m346.001 241.001h111.001c5.523 0 10-4.477 10-10v-71h35c5.523 0 10-4.477 10-10 0-22.016-13.002-41.052-31.731-49.832 19.921-20.168 5.388-55.241-23.269-55.168-28.655-.074-43.19 35.005-23.268 55.168-18.729 8.78-31.732 27.816-31.732 49.832 0 5.523 4.477 10 10 10h35v61h-101.001c-13.254.492-13.244 19.513 0 20zm111.001-176.001c6.893 0 12.5 5.607 12.5 12.5-.628 16.56-24.374 16.556-25 0 0-6.892 5.608-12.5 12.5-12.5zm0 50c15.825 0 29.231 10.558 33.545 25h-67.09c4.313-14.441 17.719-25 33.545-25z"/></g><path clip-rule="evenodd" d="m256.001 356.001c55.078 0 100-44.922 100-100-5.115-132.464-194.905-132.428-200 .001 0 55.077 44.922 99.999 100 99.999z" fill="#b2f0fb" fill-rule="evenodd"/><path d="m309.334 219.334h-30c-13.254.492-13.244 19.513 0 20h5.857l-29.191 29.191-19.595-19.596c-3.905-3.905-10.237-3.905-14.143 0l-26.667 26.667c-9.024 9.72 4.433 23.163 14.143 14.143l19.595-19.596 19.595 19.596c3.905 3.905 10.237 3.905 14.143 0l36.262-36.262v5.858c.492 13.254 19.513 13.244 20 0v-30c.001-5.524-4.476-10.001-9.999-10.001z" fill="#020288"/></g></svg>