<svg id="Layer_1" enable-background="new 0 0 512 512" viewBox="0 0 512 512" xmlns="http://www.w3.org/2000/svg"><g><g><g><g><g><path d="m374.748 157.882-3.174-44.143-23.582 19.741c-3.678-19.681-10.779-38.393-20.831-55.368-8.101 12.732-22.4 21.188-38.688 21.188-25.255 0-45.728-20.328-45.728-45.404 0-9.004 5.895-22.956 13.452-37.143l-16.95 13.073c-33.26 25.653-55.879 62.537-63.563 103.653l-23.582-19.741-3.174 44.143c-2.407 20.443.629 32.784 8.289 45.582h209.242c7.66-12.797 10.696-25.138 8.289-45.581z" fill="#ffbdbc"/></g></g></g></g><path d="m445.264 306.561h-.287l-40.498-76.082c-10.777-22.495-33.901-37.015-58.98-37.015h-167.32c-25.077 0-48.201 14.521-58.98 37.014l-40.499 76.083h-11.964c-36.798 0-66.736 29.938-66.736 66.736v68.34c0 5.523 4.477 10 10 10h51.797c6.659 25.071 29.668 43.61 56.95 43.61s50.292-18.539 56.95-43.61h158.037c6.658 25.071 29.667 43.61 56.95 43.61s50.291-18.539 56.95-43.61h54.366c5.522 0 10-4.477 10-10v-68.34c0-36.798-29.938-66.736-66.736-66.736zm-58.75-67.291c.065.139.135.276.207.412l35.6 66.879h-134.682v-93.096h57.859c17.477 0 33.576 10.129 41.016 25.805zm-249.558.412c.072-.135.141-.272.207-.411 7.44-15.677 23.539-25.806 41.015-25.806h89.461v93.096h-166.284zm-116.956 133.615c0-25.771 20.966-46.736 46.736-46.736h200.902v105.076h-90.218c-2.591-29.92-27.916-53.481-58.674-53.481s-56.083 23.561-58.674 53.481h-40.072zm98.747 101.95c-21.445 0-38.892-17.292-38.892-38.546s17.447-38.545 38.892-38.545 38.892 17.292 38.892 38.545c0 21.254-17.447 38.546-38.892 38.546zm271.937 0c-21.445 0-38.892-17.292-38.892-38.546s17.446-38.545 38.892-38.545 38.892 17.292 38.892 38.545c-.001 21.254-17.447 38.546-38.892 38.546zm101.316-43.61h-42.643c-2.591-29.92-27.916-53.481-58.673-53.481s-56.083 23.561-58.673 53.481h-44.372v-105.076h157.625c25.771 0 46.736 20.966 46.736 46.736z" fill="#020288"/></g><g/><g/><g/><g/><g/><g/><g/><g/><g/><g/><g/><g/><g/><g/><g/></svg>