<svg id="Capa_1" enable-background="new 0 0 512 512" height="512" viewBox="0 0 512 512" width="512" xmlns="http://www.w3.org/2000/svg"><g><path d="m140.53 349.85v152.15h-60.24v-70.29c0-36.21 26.59-67.44 60.24-81.86z" fill="#fff59b"/><path d="m431.71 431.71v70.29h-60.24v-152.15c33.65 14.42 60.24 45.65 60.24 81.86z" fill="#fff59b"/><g fill="#020288"><path d="m331.31 331.35c-12.694-.002-7.343-.002-22.011 0l-6.783-32.236c12.444-6.98 23.133-16.7 31.255-28.093h17.617c22.124 0 40.123-17.999 40.123-40.122 0-23.774 0-91.602 0-115.47 0-63.648-51.782-115.429-115.429-115.429h-40.164c-63.647 0-115.428 51.781-115.428 115.429v65.265c0 24.664 17.897 45.214 41.384 49.379 4.713 29.473 22.769 54.624 47.663 68.796l-6.835 32.481c-5.644 0-16.356 0-22.011 0-55.215 0-110.4 44.679-110.4 100.36v70.29c0 5.522 4.477 10 10 10h351.42c5.522 0 10-4.478 10-10v-70.29c-.001-55.591-55.058-100.36-110.401-100.36zm-130.575 20h6.653l30.358 23.611-37.011 19.93zm48.876 90.365h12.777l7.184 50.285h-27.144zm14.242-20h-15.707l-8.376-25.128 16.23-8.739 16.228 8.738zm10.401-46.753 30.358-23.612h6.653v43.541zm77.134-123.942h-6.725c2.666-6.72 4.564-13.747 5.639-20.979 7.853-1.422 15.078-4.666 21.209-9.296v10.153c0 11.096-9.028 20.122-20.123 20.122zm-170.735-120.489v-10.931c0-32.652 26.532-59.438 59.437-59.438h31.819c29.404 0 54.161 21.454 58.713 50.286-1.435-.379-30.85 4.28-40.032-23.283-1.326-3.981-4.997-6.712-9.192-6.836-4.208-.112-8.02 2.386-9.579 6.282-10.63 26.573-36.335 43.919-64.868 43.919-15.077.001-11.111.001-26.298.001zm170.694 21.711c11.731 4.135 20.164 15.324 20.164 28.451 0 13.128-8.433 24.318-20.164 28.453zm-115.429-132.242h40.164c52.619 0 95.429 42.81 95.429 95.429v25.214c-5.859-4.424-12.713-7.595-20.164-9.107v-11.935c0-43.64-35.46-79.438-79.438-79.438h-31.819c-44.055 0-79.437 35.917-79.437 79.438v11.935c-7.45 1.513-14.304 4.684-20.163 9.107v-25.214c0-52.619 42.809-95.429 95.428-95.429zm-95.428 160.693c0-13.127 8.433-24.316 20.163-28.451v56.904c-11.73-4.135-20.163-15.325-20.163-28.453zm40.163 34.051v-64.213h26.297c30.667 0 58.236-15.529 74.434-39.49 10.053 12.057 25.113 19.408 41.509 19.408h8.454v85.388c0 12.467-3.016 24.469-8.69 35.184h-33.494c-9.861 0-19.41-2.892-27.615-8.361-4.596-3.063-10.804-1.822-13.867 2.773s-1.822 10.804 2.773 13.867c11.502 7.668 24.886 11.721 38.709 11.721h18.105c-14.548 13.55-33.1 20.384-52.134 20.158-41.069-.46-74.481-34.748-74.481-76.435zm103.106 92.362 6.353 30.185-34.112 26.53-34.111-26.53 6.376-30.299c18.113 5.613 37.606 5.528 55.494.114zm-193.469 124.604c0-29.579 21.772-58.782 54.175-72.667 11.757-5.033 24.284-7.693 36.225-7.693h.046v60.283c0 7.536 8.064 12.399 14.741 8.805l26.42-14.227 8.808 26.427-8.479 59.362h-131.936zm331.42 60.29h-131.935l-8.48-59.361 8.809-26.428 26.421 14.227c6.65 3.579 14.741-1.238 14.741-8.805v-60.283h.044c11.941 0 24.468 2.66 36.222 7.691 32.406 13.887 54.179 43.09 54.179 72.669v60.29z"/><path d="m291.287 200.305c5.523 0 10-4.478 10-10v-10.082c0-5.523-4.477-10-10-10-5.522 0-10 4.477-10 10v10.082c0 5.522 4.478 10 10 10z"/><path d="m220.714 170.223c-5.523 0-10 4.477-10 10v10.082c0 5.522 4.477 10 10 10s10-4.478 10-10v-10.082c0-5.523-4.477-10-10-10z"/></g></g></svg>