<svg id="Capa_1" enable-background="new 0 0 512.002 512.002" height="512" viewBox="0 0 512.002 512.002" width="512" xmlns="http://www.w3.org/2000/svg"><g><g clip-rule="evenodd" fill="#b2f0fb" fill-rule="evenodd"><path d="m121.001 55h270v92.003h-270z"/><path d="m233.502 302.002h157.499v45h-157.499z"/></g><g fill="#020288"><path d="m502.002 437.002h-10v-314.999c0-16.542-13.458-30-30-30h-16v-82.003c0-5.523-4.477-10-10-10h-360c-5.523 0-10 4.477-10 10v82.003h-16c-16.542 0-30 13.458-30 30v314.999h-10.002c-5.523 0-10 4.477-10 10v35c0 16.542 13.458 30 30 30h452.002c16.542 0 30-13.458 30-30v-35c0-5.523-4.477-10-10-10zm-40.001-324.999c5.514 0 10 4.486 10 10v269.998h-26v-279.998zm-36-92.003v372.001h-340v-372.001zm-376 92.003h16v279.998h-26v-269.998c0-5.514 4.486-10 10-10zm-10 299.998h432v25.001h-156c-5.523 0-10 4.478-10 10h-100c0-5.523-4.477-10-10-10h-156zm452.001 70.001c0 5.514-4.486 10-10 10h-452.002c-5.514 0-10-4.486-10-10v-25h168.684c3.463 5.974 9.928 10 17.316 10h100c7.388 0 13.853-4.026 17.316-10h168.685v25z"/><path d="m223.502 202.002v45c0 5.523 4.477 10 10 10h157.5c5.523 0 10-4.477 10-10v-45c0-5.523-4.477-10-10-10h-157.5c-5.523 0-10 4.477-10 10zm20 10h137.5v25h-137.5z"/><path d="m136.43 254.074c1.953 1.953 4.512 2.929 7.071 2.929s5.119-.976 7.071-2.929l45-45c3.905-3.905 3.905-10.237 0-14.143s-10.237-3.905-14.143 0l-37.929 37.93-15.429-15.429c-3.905-3.905-10.237-3.905-14.143 0s-3.905 10.237 0 14.143z"/><path d="m136.43 354.073c1.953 1.953 4.512 2.929 7.071 2.929s5.119-.977 7.071-2.929l45-45c3.905-3.905 3.905-10.237 0-14.143-3.905-3.904-10.236-3.904-14.143 0l-37.929 37.929-15.429-15.429c-3.905-3.905-10.237-3.905-14.143 0s-3.905 10.237 0 14.143z"/><path d="m199.751 111.002h112.5c5.523 0 10-4.477 10-10s-4.477-10-10-10h-112.5c-5.523 0-10 4.477-10 10s4.477 10 10 10z"/></g></g></svg>