<svg id="Capa_1" enable-background="new 0 0 512 512" height="512" viewBox="0 0 512 512" width="512" xmlns="http://www.w3.org/2000/svg"><g><g><g><path d="m349.843 275.305c-21.828 0-39.522 17.695-39.522 39.522v58.916h61.189c0-15.632 12.672-28.304 28.304-28.304s28.304 12.672 28.304 28.304h73.882v-98.438z" fill="#a4fcc4"/></g><g><path d="m69.105 321.723h184.746v59.219h-184.746z" fill="#a4fcc4"/></g></g><g><g fill="#020288"><path d="m399.813 335.439c-21.121 0-38.304 17.183-38.304 38.304s17.183 38.304 38.304 38.304 38.304-17.183 38.304-38.304c.001-21.121-17.182-38.304-38.304-38.304zm0 56.608c-10.093 0-18.304-8.211-18.304-18.304s8.211-18.304 18.304-18.304 18.304 8.211 18.304 18.304-8.211 18.304-18.304 18.304z"/><path d="m454.97 45.77h-397.94c-31.447 0-57.03 25.584-57.03 57.03v306.4c0 31.446 25.583 57.03 57.03 57.03h397.94c31.446 0 57.03-25.583 57.03-57.03v-306.4c0-31.446-25.583-57.03-57.03-57.03zm-434.97 57.03c0-20.418 16.611-37.03 37.03-37.03h397.94c20.418 0 37.03 16.611 37.03 37.03v27.552h-472zm434.97 343.43h-397.94c-20.419 0-37.03-16.611-37.03-37.03v-258.848h472v36.198h-52.037c-15.207 0-29.552 7.395-38.375 19.781l-44.993 63.173c-2.171 3.049-2.458 7.056-.743 10.383s5.146 5.418 8.889 5.418h127.259v123.895c0 20.419-16.611 37.03-37.03 37.03zm37.03-180.925h-107.86l33.739-47.372c5.077-7.128 13.333-11.384 22.084-11.384h52.037z"/><path d="m71.84 94.24c-1.614-3.938-5.706-6.454-9.949-6.147-4.146.3-7.752 3.232-8.896 7.225-1.151 4.015.394 8.441 3.794 10.868 3.356 2.396 7.939 2.471 11.371.185 3.915-2.61 5.49-7.786 3.68-12.131z"/><path d="m122.65 94.24c-1.535-3.744-5.31-6.207-9.349-6.172-4.213.037-7.973 2.823-9.344 6.781-1.38 3.986.022 8.589 3.376 11.141 3.314 2.522 7.916 2.735 11.439.51 4.052-2.558 5.72-7.839 3.878-12.26z"/><path d="m173.46 94.24c-1.613-3.934-5.703-6.455-9.942-6.147-4.206.305-7.849 3.306-8.943 7.382-1.067 3.974.491 8.318 3.833 10.717 3.433 2.465 8.21 2.465 11.643 0 3.727-2.677 5.175-7.713 3.409-11.952z"/><path d="m449.393 88.061h-163.405c-5.523 0-10 4.477-10 10s4.477 10 10 10h163.404c5.523 0 10-4.477 10-10s-4.476-10-9.999-10z"/><path d="m136.554 269.821-10.766-9.978c2.738-5.09 4.191-10.809 4.191-16.752 0-9.466-3.687-18.365-10.379-25.058-6.693-6.693-15.592-10.38-25.058-10.38-9.465 0-18.364 3.687-25.057 10.379-6.693 6.693-10.38 15.592-10.38 25.058 0 9.465 3.687 18.365 10.379 25.058 6.909 6.908 15.983 10.362 25.058 10.362 5.932 0 11.863-1.476 17.19-4.428l11.226 10.405c1.925 1.784 4.363 2.666 6.795 2.666 2.687 0 5.366-1.076 7.336-3.202 3.755-4.048 3.515-10.375-.535-14.13zm-52.928-15.814c-2.916-2.916-4.522-6.792-4.522-10.916s1.606-8 4.522-10.916 6.792-4.521 10.915-4.521c4.124 0 8 1.606 10.916 4.521 2.916 2.916 4.521 6.792 4.521 10.916 0 4.123-1.606 8-4.522 10.916s-6.792 4.521-10.916 4.521c-4.122 0-7.998-1.605-10.914-4.521z"/><path d="m253.851 267.155h-81.766c-5.523 0-10 4.477-10 10s4.477 10 10 10h81.766c5.523 0 10-4.477 10-10s-4.477-10-10-10z"/></g></g></g></svg>