<svg id="Capa_1" enable-background="new 0 0 512 512" height="512" viewBox="0 0 512 512" width="512" xmlns="http://www.w3.org/2000/svg"><g><path d="m461.84 146.215v149.27c-16.34 0-30.88 7.7-40.18 19.67-.58-38.32-31.82-69.2-70.27-69.2-51.925 0-85.464 54.246-63.52 100.41h-186.83c0-28.1-22.78-50.88-50.88-50.88v-149.27c28.1 0 50.88-22.78 50.88-50.87h309.92c0 28.09 22.78 50.87 50.88 50.87z" fill="#a4fcc4"/><g fill="#020288"><path d="m472 45.179h-432c-22.056 0-40 17.944-40 40v271.347c0 22.056 17.944 40 40 40h261.225v60.286c0 7.42 7.823 12.266 14.473 8.944l35.69-17.846 35.69 17.846c6.636 3.318 14.473-1.514 14.473-8.944v-60.286h70.449c22.056 0 40-17.944 40-40v-271.347c0-22.056-17.944-40-40-40zm-195.009 240.979h-10.95c-8.327 0-15.101-6.775-15.101-15.103 0-8.327 6.774-15.102 15.101-15.102h32.309c-9.278 8.209-16.609 18.547-21.359 30.205zm74.399-30.203c32.738 0 59.776 26.625 60.272 59.352.768 33.005-26.177 61.219-60.272 61.219-23.155 0-44.543-13.523-54.487-34.452 0 0 0-.001-.001-.001-18.847-39.651 10.051-86.118 54.488-86.118zm4.47 171.83c-2.816-1.408-6.129-1.408-8.945 0l-25.69 12.846v-50.05c19.858 8.102 41.504 7.718 60.326.091v49.959zm136.14-71.26c0 11.028-8.972 20-20 20h-67.62c35.533-31.301 36.16-85.131 3.367-117.461-14.941-14.73-35.021-23.11-56.359-23.11h-85.347c-19.355 0-35.101 15.746-35.101 35.102 0 19.355 15.746 35.103 35.101 35.103h5.67c-1.928 14.967.41 30.369 7.128 44.5l-.001-.001c4.766 10.03 11.514 18.773 19.628 25.868h-258.466c-11.028 0-20-8.972-20-20v-271.347c0-11.028 8.972-20 20-20h432c11.028 0 20 8.972 20 20z"/><path d="m178.862 227.199c-3.745-12.351-15.237-21.368-28.796-21.368-13.558 0-25.05 9.018-28.795 21.368-12.351 3.745-21.367 15.237-21.367 28.796 0 16.587 13.494 30.082 30.081 30.082h40.163c16.587 0 30.082-13.495 30.082-30.082 0-13.559-9.016-25.051-21.368-28.796zm-8.714 38.878h-40.163c-5.559 0-10.081-4.522-10.081-10.082s4.523-10.082 10.081-10.082c5.522 0 10-4.478 10-10 0-5.56 4.522-10.082 10.081-10.082 5.56 0 10.082 4.523 10.082 10.082 0 5.522 4.478 10 10 10 5.56 0 10.082 4.522 10.082 10.082s-4.522 10.082-10.082 10.082z"/><path d="m150.066 185.669c5.522 0 10-4.477 10-10v-10.041c0-5.522-4.478-10-10-10-5.523 0-10 4.478-10 10v10.041c0 5.522 4.478 10 10 10z"/><path d="m199.767 175.71c-5.523 0-10 4.478-10 10v10.545c0 5.522 4.477 10 10 10 5.522 0 10-4.478 10-10v-10.545c0-5.523-4.478-10-10-10z"/><path d="m110.367 196.255v-10.545c0-5.522-4.478-10-10-10s-10 4.478-10 10v10.545c0 5.522 4.478 10 10 10 5.523 0 10-4.478 10-10z"/><path d="m271.06 155.546h110.45c5.522 0 10-4.478 10-10s-4.478-10-10-10h-110.45c-5.522 0-10 4.478-10 10s4.478 10 10 10z"/><path d="m411.633 185.75h-170.694c-5.522 0-10 4.477-10 10 0 5.522 4.478 10 10 10h170.693c5.522 0 10-4.478 10-10 .001-5.523-4.477-10-9.999-10z"/></g><circle cx="351.388" cy="316.24" fill="#a4fcc4" r="30.122"/></g></svg>