<svg id="Capa_1" enable-background="new 0 0 512 512" height="512" viewBox="0 0 512 512" width="512" xmlns="http://www.w3.org/2000/svg"><g><g><path id="XMLID_585_" d="m353.607 126 3.14 42.915c2.488 33.989-17.567 66.135-50.276 78.305l-50.471 18.78-50.471-18.78c-31.941-11.884-52.823-43.499-50.276-78.305l3.14-42.915h-108.393v220h412v-220z" fill="#e2c4ff"/></g><g fill="#020288"><path d="m472 76h-112.024l-1.717-23.465c-.285-3.899-2.816-7.274-6.478-8.64-14.567-5.434-25.424-16.343-31.395-31.55-1.504-3.828-5.196-6.345-9.309-6.345h-110.154c-4.112 0-7.805 2.517-9.309 6.345-5.971 15.207-16.827 26.116-31.395 31.55-3.662 1.366-6.193 4.741-6.479 8.64l-1.716 23.465h-112.024c-22.056 0-40 17.944-40 40v260c0 22.056 17.944 40 40 40h168.534l-15.556 70h-21.978c-5.523 0-10 4.477-10 10s4.477 10 10 10h170c5.522 0 10-4.477 10-10s-4.478-10-10-10h-21.978l-15.556-70h168.534c22.056 0 40-17.944 40-40v-260c0-22.056-17.944-40-40-40zm-264.576-50h97.152c7.506 15.167 19.361 26.986 34.181 34.073l8.017 109.572c2.167 29.605-15.3 57.602-43.789 68.203l-46.985 17.482-46.984-17.482c-28.067-10.444-45.99-38.129-43.789-68.203l8.017-109.572c14.819-7.087 26.674-18.906 34.18-34.073zm-167.424 70h110.561l-5.282 72.185c-2.808 38.376 19.836 74.667 56.762 88.407l50.472 18.78c2.216.824 4.689.85 6.975 0l50.472-18.78c36.059-13.417 59.637-49.11 56.762-88.407l-5.283-72.185h110.561c11.028 0 20 8.972 20 20v220h-472v-220c0-11.028 8.972-20 20-20zm258.534 390h-85.068l15.556-70h53.957zm173.466-90c-16.55 0-412.163 0-432 0-11.028 0-20-8.972-20-20v-20h472v20c0 11.028-8.972 20-20 20z"/><path d="m238.929 174.411c1.953 1.953 4.512 2.929 7.071 2.929s5.118-.976 7.071-2.929l50-50c3.905-3.905 3.905-10.237 0-14.143-3.906-3.905-10.236-3.905-14.143 0l-42.928 42.93-22.929-22.929c-3.906-3.905-10.236-3.905-14.143 0-3.905 3.905-3.905 10.237 0 14.143z"/></g></g></svg>