<svg id="Capa_1" enable-background="new 0 0 512 512" height="512" viewBox="0 0 512 512" width="512" xmlns="http://www.w3.org/2000/svg"><g><g><path id="XMLID_63_" d="m172.537 428.09c-26.211-9.753-48.052-27.346-63.162-50.881-15.11-23.534-22.018-50.716-19.977-78.609l13.993-191.246c27.168-10.133 49.441-30.836 61.529-57.191h182.158c12.089 26.356 34.361 47.058 61.528 57.191l13.993 191.246c2.041 27.893-4.866 55.075-19.977 78.609-15.109 23.534-36.951 41.128-63.162 50.881l-83.46 31.056z" fill="#a4fcc4"/></g><g fill="#020288"><path d="m472.632 294.94-16.22-221.658c-.383-5.226-4.734-9.27-9.974-9.27-30.777 0-56.646-24.045-58.893-54.742-.382-5.226-4.734-9.27-9.973-9.27h-243.145c-5.24 0-9.591 4.044-9.973 9.271-2.246 30.696-28.115 54.741-58.894 54.741-5.24 0-9.591 4.044-9.973 9.271l-16.218 221.657c-2.84 38.808 6.771 76.628 27.794 109.372s51.412 57.224 87.881 70.794l97.468 36.267c2.244.836 4.72.839 6.975 0l97.469-36.267c36.469-13.57 66.857-38.05 87.881-70.794 21.022-32.744 30.633-70.564 27.795-109.372zm-122.651 161.421-93.981 34.969-93.981-34.969c-65.577-24.401-107.81-90.179-102.704-159.962l15.581-212.935c33.817-3.99 61.727-29.496 68.277-63.464h225.653c6.448 33.436 33.924 59.41 68.277 63.464l15.581 212.936c5.107 69.782-37.127 135.56-102.703 159.961z"/><path d="m341.346 210.857h-20.122v-25.367c0-35.841-29.159-65-65-65h-.449c-35.841 0-65 29.159-65 65v25.367h-20.123c-5.523 0-10 4.477-10 10v100.531c0 22.056 17.944 40 40 40h110.694c22.056 0 40-17.944 40-40v-100.531c0-5.523-4.477-10-10-10zm-130.571-25.367c0-24.813 20.187-45 45-45h.449c24.813 0 45 20.187 45 45v25.367h-90.449zm45.225 105.694c-5.559 0-10.082-4.522-10.082-10.081s4.522-10.082 10.082-10.082 10.082 4.522 10.082 10.082c0 5.558-4.523 10.081-10.082 10.081zm75.346 30.204c0 11.028-8.972 20-20 20h-45.346v-31.92c11.685-4.132 20.082-15.284 20.082-28.366 0-16.587-13.495-30.082-30.082-30.082s-30.082 13.495-30.082 30.082c0 13.082 8.397 24.234 20.082 28.366v31.92h-45.347c-11.028 0-20-8.972-20-20v-90.531h20.123 130.571v90.531z"/></g></g></svg>