<svg id="Capa_1" enable-background="new 0 0 512 512" height="512" viewBox="0 0 512 512" width="512" xmlns="http://www.w3.org/2000/svg"><g><g><path id="XMLID_417_" d="m207.544 431.11c-60.659-31.926-98.341-94.341-98.341-162.888v-135.913c38.728-12.749 69.396-43.418 82.146-82.146h129.302c12.749 38.728 43.418 69.396 82.146 82.146v135.914c0 68.547-37.683 130.962-98.341 162.888l-48.456 25.502z" fill="#ffbdbc"/></g><g fill="#020288"><path d="m291.143 242.851h-24.605v-24.605c0-5.523-4.478-10-10-10-5.523 0-10 4.477-10 10v24.605h-25.68c-5.522 0-10 4.477-10 10s4.478 10 10 10h25.68v25.68c0 5.523 4.478 10 10 10s10-4.477 10-10v-25.68h24.605c5.522 0 10-4.477 10-10s-4.478-10-10-10z"/><path d="m256 142.98c-60.879 0-110.408 49.529-110.408 110.408s49.529 110.408 110.408 110.408 110.408-49.529 110.408-110.408-49.529-110.408-110.408-110.408zm0 200.816c-49.852 0-90.408-40.557-90.408-90.408s40.556-90.408 90.408-90.408 90.408 40.557 90.408 90.408-40.556 90.408-90.408 90.408z"/><path d="m442.96 88.56c-43.317 0-78.56-35.242-78.56-78.56 0-5.523-4.477-10-10-10h-196.8c-5.522 0-10 4.477-10 10 0 43.318-35.242 78.56-78.56 78.56-5.522 0-10 4.477-10 10v169.663c0 86.913 48.147 166.755 125.141 207.278l67.162 35.349c2.915 1.535 6.4 1.534 9.314 0l67.162-35.349c76.911-40.48 125.141-120.272 125.141-207.278v-169.663c0-5.523-4.478-10-10-10zm-10 179.663c0 79.78-43.857 152.423-114.455 189.579l-62.505 32.898-62.505-32.898c-70.599-37.156-114.455-109.8-114.455-189.579v-160.166c46.375-4.696 83.359-41.682 88.057-88.057h177.807c4.697 46.375 41.682 83.36 88.057 88.057v160.166z"/></g></g></svg>