<svg id="Capa_1" enable-background="new 0 0 512 512" height="512" viewBox="0 0 512 512" width="512" xmlns="http://www.w3.org/2000/svg"><g><g><path d="m81.362 240.851h349.277v44.426h-349.277z" fill="#b2f0fb"/><g><path d="m293.787 326.526h136.851v102.237h-136.851z" fill="#b2f0fb"/></g></g><g fill="#020288"><path d="m440.496 144.865h-69.748v-14.537c0-5.523-4.477-10-10-10h-57.503c1.648-2.099 3.337-4.792 5.058-8.524 3.511-7.618 5.291-15.763 5.291-24.209 0-15.499-6.038-30.051-17.002-40.975-10.868-10.828-25.274-16.783-40.589-16.783-.072 0-.145 0-.218 0-14.876.055-29.01 5.852-39.797 16.324-10.784 10.469-17.015 24.438-17.543 39.334-.339 9.548 1.688 19.088 5.863 27.588 1.506 3.068 2.965 5.392 4.38 7.246h-57.435c-5.523 0-10 4.477-10 10v14.537h-69.749c-39.427-.001-71.504 32.075-71.504 71.502v194.292c0 39.427 32.077 71.504 71.504 71.504h368.992c39.427 0 71.504-32.077 71.504-71.504v-194.292c0-39.427-32.077-71.503-71.504-71.503zm-279.245-4.537h64.832c2.877 0 5.616-1.24 7.514-3.402 1.899-2.162 2.774-5.038 2.402-7.891-1.358-10.418-4.094-14.387-8.992-18.448-1.551-1.286-2.776-2.302-4.749-6.32-2.766-5.631-4.053-11.708-3.828-18.062.709-19.979 17.499-36.294 37.427-36.368h.142c9.986 0 19.384 3.886 26.475 10.951 7.17 7.144 11.119 16.664 11.119 26.807 0 5.535-1.163 10.864-3.455 15.838-1.977 4.288-3.283 5.423-4.938 6.86-4.909 4.264-7.667 8.318-9.12 18.643-.404 2.867.456 5.768 2.354 7.954 1.899 2.185 4.652 3.44 7.548 3.44h64.764v44.238h-189.495zm330.749 270.332c0 28.399-23.104 51.504-51.504 51.504h-368.992c-28.4 0-51.504-23.105-51.504-51.504v-194.292c0-28.399 23.104-51.504 51.504-51.504h69.748v29.702c0 5.523 4.477 10 10 10h209.497c5.523 0 10-4.477 10-10v-29.702h69.748c28.399 0 51.504 23.104 51.504 51.504v194.292z"/><path d="m147.161 389.843c8.634-7.694 14.08-18.893 14.08-31.34 0-23.146-18.831-41.977-41.977-41.977s-41.977 18.831-41.977 41.977c0 12.447 5.446 23.646 14.08 31.34-12.107 8.702-20.006 22.906-20.006 38.92 0 5.523 4.477 10 10 10s10-4.477 10-10c0-15.386 12.517-27.903 27.903-27.903s27.903 12.517 27.903 27.903c0 5.523 4.477 10 10 10s10-4.477 10-10c.001-16.014-7.899-30.217-20.006-38.92zm-27.896-53.317c12.118 0 21.977 9.859 21.977 21.977s-9.859 21.977-21.977 21.977-21.977-9.859-21.977-21.977 9.858-21.977 21.977-21.977z"/><path d="m247.383 316.526h-53.617c-5.523 0-10 4.477-10 10s4.477 10 10 10h53.617c5.523 0 10-4.477 10-10s-4.477-10-10-10z"/><path d="m247.383 367.645h-53.617c-5.523 0-10 4.477-10 10s4.477 10 10 10h53.617c5.523 0 10-4.477 10-10s-4.477-10-10-10z"/><path d="m247.383 418.763h-53.617c-5.523 0-10 4.477-10 10s4.477 10 10 10h53.617c5.523 0 10-4.477 10-10s-4.477-10-10-10z"/></g></g></svg>