<svg id="Capa_1" enable-background="new 0 0 512 512" height="512" viewBox="0 0 512 512" width="512" xmlns="http://www.w3.org/2000/svg"><g><g><path d="m392.687 46.366h-101.649v-14.105c0-17.789-14.473-32.261-32.262-32.261h-85.281c-17.789 0-32.262 14.472-32.262 32.261v14.104h-101.648c-21.827.001-39.585 17.759-39.585 39.586v260.548c0 21.828 17.758 39.585 39.585 39.585h301.84c5.522 0 10-4.477 10-10s-4.478-10-10-10h-301.84c-10.799 0-19.585-8.786-19.585-19.585v-120.813c11.664 11.189 27.488 18.075 44.889 18.075h12.362v30.016c0 5.523 4.477 10 10 10h47.73c5.523 0 10-4.477 10-10v-30.016h142.309v30.016c0 5.523 4.478 10 10 10h47.73c5.522 0 10-4.477 10-10v-30.016h12.362c17.402 0 33.225-6.885 44.89-18.075v90.25c0 5.523 4.478 10 10 10s10-4.477 10-10v-229.985c0-21.827-17.757-39.585-39.585-39.585zm-231.453-14.105c0-6.761 5.5-12.261 12.262-12.261h85.281c6.761 0 12.262 5.5 12.262 12.261v14.104h-109.805zm-36.252 231.516h-27.73v-60.032h27.73zm210.039 0h-27.73v-60.032h27.73zm32.362-40.016h-12.362v-30.016c0-5.523-4.478-10-10-10h-47.73c-5.522 0-10 4.477-10 10v30.016h-142.309v-30.016c0-5.523-4.477-10-10-10h-47.73c-5.523 0-10 4.477-10 10v30.016h-12.363c-24.752 0-44.889-20.137-44.889-44.889v-92.92c0-10.799 8.786-19.585 19.585-19.585h353.101c10.8 0 19.586 8.786 19.586 19.585v92.92c0 24.752-20.137 44.889-44.889 44.889z" fill="#020288"/></g><g><g><g><circle cx="402.064" cy="402.064" fill="#fff59b" r="109.936"/></g></g><path d="m417.619 393.972c-1.679-.593-3.273-1.163-4.784-1.707v-32.132c3.958 1.206 6.7 3.221 8.045 5.138 3.172 4.521 9.409 5.615 13.93 2.441 4.521-3.172 5.614-9.409 2.441-13.93-4.715-6.719-13.263-12.326-24.416-14.143v-2.114c0-5.523-4.478-10-10-10s-10 4.477-10 10v2.874c-1.519.337-3.063.739-4.629 1.211-12.547 3.78-22.019 15.969-23.032 29.641-1.001 13.501 6.188 25.232 19.229 31.382 1.849.872 4.747 2.077 8.432 3.514v38.476c-5.144-1.536-9.869-4.112-12.938-7.922-3.467-4.302-9.76-4.979-14.062-1.515-4.301 3.464-4.979 9.76-1.515 14.061 7.287 9.046 18.043 13.884 28.515 15.941v1.411c0 5.523 4.478 10 10 10s10-4.477 10-10v-.648c22.098-2.798 31.744-17.171 33.373-30.004 2.281-17.957-9.476-35.218-28.589-41.975zm-32.5-21.241c.369-4.973 3.599-9.712 7.716-11.545v23.312c-6.852-3.272-7.98-8.2-7.716-11.767zm41.249 60.699c-.796 6.264-5.657 10.606-13.533 12.258v-32.125c10.446 4.482 14.371 13.265 13.533 19.867z" fill="#020288"/></g></g></svg>