<svg id="Layer_1" enable-background="new 0 0 512 512" height="512" viewBox="0 0 512 512" width="512" xmlns="http://www.w3.org/2000/svg"><path d="m511.396 247.699c-15.416-54.502-48.781-103.611-93.949-138.279-42.416-32.556-92.41-51.155-145.447-54.269v-39.151c0-8.836-7.163-16-16-16s-16 7.164-16 16v39.151c-53.037 3.114-103.031 21.713-145.447 54.269-45.168 34.668-78.533 83.776-93.949 138.279-1.364 4.824-.389 10.008 2.636 14.006 3.024 3.999 7.747 6.348 12.761 6.348h224v139.621c0 39.88-32.445 72.326-72.325 72.326-39.881 0-72.326-32.445-72.326-72.326 0-8.836-7.163-16-16-16s-16 7.164-16 16c-.001 57.526 46.799 104.326 104.325 104.326s104.325-46.8 104.325-104.326v-139.621h224c5.014 0 9.736-2.35 12.761-6.348 3.024-3.998 4-9.183 2.635-14.006zm-473.208-11.646c34.347-88.928 121.049-149.375 217.812-149.375s183.465 60.446 217.812 149.375zm273.967-74.687c0 8.836-7.163 16-16 16h-24.155v24.155c0 8.836-7.163 16-16 16s-16-7.164-16-16v-24.155h-24.155c-8.837 0-16-7.164-16-16s7.163-16 16-16h24.155v-24.156c0-8.836 7.163-16 16-16s16 7.164 16 16v24.155h24.155c8.837.001 16 7.164 16 16.001z"/></svg>